<svg width="44" height="44" viewBox="0 0 44 44" fill="none" xmlns="http://www.w3.org/2000/svg">
<g clip-path="url(#clip0_100_407)">
<path d="M38.8235 0.431396H0V37.5294H4.31373V5.60787H38.8235V0.431396Z" fill="#8E8E8E"/>
<path d="M6.03906 8.76471V45H43.9998V8.76471H6.03906ZM34.5097 27.7451H25.8822V36.3725C25.8822 36.8496 25.4966 37.2353 25.0195 37.2353C24.5424 37.2353 24.1567 36.8496 24.1567 36.3725V27.7451H15.5293C15.0522 27.7451 14.6665 27.3595 14.6665 26.8824C14.6665 26.4053 15.0522 26.0196 15.5293 26.0196H24.1567V17.3922C24.1567 16.9151 24.5424 16.5294 25.0195 16.5294C25.4966 16.5294 25.8822 16.9151 25.8822 17.3922V26.0196H34.5097C34.9867 26.0196 35.3724 26.4053 35.3724 26.8824C35.3724 27.3595 34.9867 27.7451 34.5097 27.7451Z" fill="#8E8E8E"/>
</g>
<defs>
<clipPath id="clip0_100_407">
<rect width="44" height="44" fill="white"/>
</clipPath>
</defs>
</svg>
