<svg width="44" height="44" viewBox="0 0 44 44" fill="none" xmlns="http://www.w3.org/2000/svg">
<rect width="44" height="44" fill="#8D8D8D"/>
<path d="M32.357 13.3593C30.3913 11.5469 27.1945 11.5469 25.2288 13.3593L12.1595 25.3746C12.0573 25.4686 11.9941 25.5894 11.9746 25.7192L11.0064 32.3153C10.9772 32.5033 11.0502 32.6912 11.1913 32.821C11.3129 32.9329 11.4832 33 11.6535 33C11.6827 33 11.7119 33 11.7411 32.9955L16.0618 32.4585C16.4219 32.4138 16.6749 32.1095 16.6262 31.7783C16.5776 31.4472 16.2467 31.2145 15.8866 31.2592L12.4223 31.6888L13.0986 27.0885L18.3633 31.9305C18.4849 32.0424 18.6552 32.1095 18.8255 32.1095C18.9958 32.1095 19.1661 32.0468 19.2878 31.9305L32.357 19.9151C33.3107 19.038 33.8362 17.8745 33.8362 16.635C33.8362 15.3954 33.3107 14.2319 32.357 13.3593ZM25.4818 14.836L27.6762 16.8542L15.7504 27.8224L13.556 25.8042L25.4818 14.836ZM18.8304 30.6506L16.6846 28.6772L28.6104 17.709L30.7562 19.6824L18.8304 30.6506ZM31.6709 18.8188L26.4209 13.9903C27.0875 13.4846 27.9195 13.2071 28.7953 13.2071C29.7928 13.2071 30.727 13.5651 31.4325 14.2095C32.138 14.8539 32.5224 15.7176 32.5224 16.635C32.5224 17.4449 32.2208 18.2057 31.6709 18.8188Z" fill="white"/>
</svg>
