<svg width="32" height="29" viewBox="0 0 32 29" fill="none" xmlns="http://www.w3.org/2000/svg">
<g clip-path="url(#clip0_497_3273)">
<path d="M9.17263 9.8808C12.1786 9.8808 14.6241 7.66453 14.6241 4.9404C14.6241 2.21626 12.1786 0 9.17263 0C6.16669 0 3.72116 2.21626 3.72116 4.9404C3.72116 7.66453 6.16669 9.8808 9.17263 9.8808ZM9.17263 1.97616C10.9762 1.97616 12.4435 3.30592 12.4435 4.9404C12.4435 6.57488 10.9762 7.90464 9.17263 7.90464C7.36907 7.90464 5.90175 6.57488 5.90175 4.9404C5.90175 3.30592 7.36907 1.97616 9.17263 1.97616Z" fill="black" fill-opacity="0.5"/>
<path d="M25.9116 7.16821L16.687 15.528C15.042 13.2618 12.234 11.857 9.17263 11.857C4.21281 11.857 0.177704 15.5138 0.177704 20.0086V20.9967H10.6525L10.1687 21.4352L7.73199 29L16.0794 26.7917L31.8223 12.5248L25.9116 7.16821ZM28.7384 12.5248L26.6992 14.3728L23.8723 11.8109L25.9116 9.96296L28.7384 12.5248ZM2.44544 19.0206C2.96886 16.0835 5.78625 13.8331 9.17263 13.8331C11.6457 13.8331 13.9011 15.043 15.1022 16.9642L12.8331 19.0206H2.44544ZM14.9324 25.0365L10.9401 26.0927L12.1055 22.4747L22.3305 13.2083L25.1574 15.7702L14.9324 25.0365Z" fill="black" fill-opacity="0.5"/>
</g>
<defs>
<clipPath id="clip0_497_3273">
<rect width="32" height="29" fill="white"/>
</clipPath>
</defs>
</svg>
