<svg width="884" height="107" viewBox="0 0 884 107" fill="none" xmlns="http://www.w3.org/2000/svg">
<path d="M884 51.9906C884 62.9446 881.983 72.2638 877.949 79.948C873.946 87.6321 868.483 93.5015 861.558 97.5562C854.665 101.578 846.915 103.589 838.307 103.589C829.635 103.589 821.853 101.562 814.96 97.5071C808.067 93.4525 802.619 87.5831 798.617 79.8989C794.615 72.2147 792.614 62.9119 792.614 51.9906C792.614 41.0365 794.615 31.7174 798.617 24.0332C802.619 16.349 808.067 10.496 814.96 6.47405C821.853 2.41941 829.635 0.39209 838.307 0.39209C846.915 0.39209 854.665 2.41941 861.558 6.47405C868.483 10.496 873.946 16.349 877.949 24.0332C881.983 31.7174 884 41.0365 884 51.9906ZM863.083 51.9906C863.083 44.895 862.051 38.9111 859.986 34.039C857.953 29.1669 855.078 25.472 851.362 22.9542C847.645 20.4364 843.294 19.1775 838.307 19.1775C833.32 19.1775 828.968 20.4364 825.252 22.9542C821.535 25.472 818.645 29.1669 816.58 34.039C814.547 38.9111 813.53 44.895 813.53 51.9906C813.53 59.0862 814.547 65.0701 816.58 69.9422C818.645 74.8143 821.535 78.5092 825.252 81.027C828.968 83.5448 833.32 84.8037 838.307 84.8037C843.294 84.8037 847.645 83.5448 851.362 81.027C855.078 78.5092 857.953 74.8143 859.986 69.9422C862.051 65.0701 863.083 59.0862 863.083 51.9906Z" fill="#292929"/>
<path d="M695.665 1.76562L716.248 1.76563V64.9395H717.058L759.225 1.76563L777.283 1.76563V102.216H756.652V38.9931H755.938L713.532 102.216H695.665V1.76562Z" fill="#292929"/>
<path d="M592.367 102.216V85.1472L595.131 84.902C598.688 84.6077 601.563 83.218 603.755 80.7329C605.946 78.2151 607.582 74.2095 608.662 68.7162C609.774 63.1901 610.489 55.7675 610.806 46.4484L612.426 1.76563L678.655 1.76563V102.216H658.596V18.7853L631.58 18.7853L630.056 53.7565C629.547 65.0049 628.245 74.1932 626.149 81.3215C624.084 88.4498 620.78 93.7143 616.238 97.115C611.727 100.516 605.549 102.216 597.703 102.216H592.367Z" fill="#292929"/>
<path d="M582.373 51.9906C582.373 62.9446 580.356 72.2638 576.322 79.948C572.32 87.6321 566.856 93.5015 559.932 97.5562C553.039 101.578 545.288 103.589 536.68 103.589C528.008 103.589 520.226 101.562 513.333 97.5071C506.44 93.4525 500.993 87.5831 496.99 79.8989C492.988 72.2147 490.987 62.9119 490.987 51.9906C490.987 41.0365 492.988 31.7174 496.99 24.0332C500.993 16.349 506.44 10.496 513.333 6.47405C520.226 2.41941 528.008 0.39209 536.68 0.39209C545.288 0.39209 553.039 2.41941 559.932 6.47405C566.856 10.496 572.32 16.349 576.322 24.0332C580.356 31.7174 582.373 41.0365 582.373 51.9906ZM561.456 51.9906C561.456 44.895 560.424 38.9111 558.359 34.039C556.326 29.1669 553.452 25.472 549.735 22.9542C546.019 20.4364 541.667 19.1775 536.68 19.1775C531.693 19.1775 527.341 20.4364 523.625 22.9542C519.908 25.472 517.018 29.1669 514.953 34.039C512.92 38.9111 511.904 44.895 511.904 51.9906C511.904 59.0862 512.92 65.0701 514.953 69.9422C517.018 74.8143 519.908 78.5092 523.625 81.027C527.341 83.5448 531.693 84.8037 536.68 84.8037C541.667 84.8037 546.019 83.5448 549.735 81.027C553.452 78.5092 556.326 74.8143 558.359 69.9422C560.424 65.0701 561.456 59.0862 561.456 51.9906Z" fill="#292929"/>
<path d="M415.467 12.5563L437.289 12.5563C445.103 12.5563 452.028 14.2566 458.063 17.6573C464.13 21.0579 468.879 25.8483 472.309 32.0283C475.772 38.1757 477.503 45.4021 477.503 53.7076C477.503 61.7514 475.772 68.7653 472.309 74.7492C468.879 80.733 464.13 85.3926 458.063 88.7278C452.028 92.0304 445.103 93.6817 437.289 93.6817L415.467 93.6817C407.621 93.6817 400.665 92.0468 394.598 88.7769C388.531 85.4743 383.766 80.8311 380.304 74.8473C376.873 68.8634 375.158 61.8005 375.158 53.6585C375.158 45.3531 376.889 38.1266 380.351 31.9793C383.845 25.7992 388.626 21.0252 394.693 17.6573C400.76 14.2566 407.685 12.5563 415.467 12.5563ZM415.467 30.3117C411.274 30.3117 407.573 31.1782 404.365 32.9112C401.189 34.6115 398.711 37.1947 396.932 40.6608C395.154 44.1269 394.264 48.4594 394.264 53.6585C394.264 58.6287 395.169 62.7651 396.98 66.0677C398.822 69.3702 401.332 71.839 404.508 73.4739C407.685 75.1088 411.338 75.9263 415.467 75.9263L437.432 75.9263C441.593 75.9263 445.23 75.0925 448.343 73.4249C451.488 71.7572 453.918 69.2721 455.633 65.9696C457.38 62.667 458.254 58.5797 458.254 53.7076C458.254 48.5085 457.38 44.1759 455.633 40.7098C453.918 37.2438 451.488 34.6442 448.343 32.9112C445.23 31.1782 441.593 30.3117 437.432 30.3117L415.467 30.3117ZM436.146 0V106.336L416.563 106.336V0L436.146 0Z" fill="#292929"/>
<path d="M287.988 19.2758V1.76562L368.13 1.76563V19.2758L338.255 19.2758V102.216L317.863 102.216V19.2758L287.988 19.2758Z" fill="#292929"/>
<path d="M204.833 102.216L204.833 1.76562L243.331 1.76563C250.733 1.76563 257.038 3.22072 262.247 6.1309C267.457 9.00838 271.427 13.014 274.159 18.1477C276.922 23.2487 278.304 29.1344 278.304 35.8049C278.304 42.4755 276.906 48.3612 274.111 53.4622C271.316 58.5632 267.266 62.5361 261.961 65.3809C256.688 68.2257 250.304 69.6481 242.807 69.6481H218.269V52.6284L239.472 52.6284C243.443 52.6284 246.714 51.9254 249.287 50.5193C251.892 49.0806 253.83 47.1023 255.1 44.5845C256.403 42.034 257.054 39.1075 257.054 35.8049C257.054 32.4697 256.403 29.5595 255.1 27.0744C253.83 24.5566 251.892 22.611 249.287 21.2377C246.683 19.8316 243.379 19.1286 239.377 19.1286L225.464 19.1286V102.216H204.833Z" fill="#292929"/>
<path d="M189.55 51.9906C189.55 62.9447 187.533 72.2638 183.499 79.948C179.497 87.6322 174.033 93.5016 167.109 97.5562C160.216 101.578 152.465 103.589 143.857 103.589C135.186 103.589 127.403 101.562 120.51 97.5072C113.617 93.4525 108.17 87.5831 104.168 79.8989C100.165 72.2147 98.1641 62.912 98.1641 51.9906C98.1641 41.0365 100.165 31.7174 104.168 24.0332C108.17 16.349 113.617 10.496 120.51 6.47405C127.403 2.41941 135.186 0.39209 143.857 0.39209C152.465 0.39209 160.216 2.41941 167.109 6.47405C174.033 10.496 179.497 16.349 183.499 24.0332C187.533 31.7174 189.55 41.0365 189.55 51.9906ZM168.633 51.9906C168.633 44.895 167.601 38.9111 165.536 34.039C163.504 29.1669 160.629 25.472 156.912 22.9542C153.196 20.4364 148.844 19.1775 143.857 19.1775C138.87 19.1775 134.518 20.4364 130.802 22.9542C127.086 25.472 124.195 29.1669 122.13 34.039C120.097 38.9111 119.081 44.895 119.081 51.9906C119.081 59.0862 120.097 65.0701 122.13 69.9422C124.195 74.8143 127.086 78.5092 130.802 81.027C134.518 83.5448 138.87 84.8037 143.857 84.8037C148.844 84.8037 153.196 83.5448 156.912 81.027C160.629 78.5092 163.504 74.8143 165.536 69.9422C167.601 65.0701 168.633 59.0862 168.633 51.9906Z" fill="#292929"/>
<path d="M80.2369 1.76575L80.2369 102.216H59.8442L59.8442 19.0306L20.3928 19.0306L20.3928 102.216H0L0 1.76575L80.2369 1.76575Z" fill="#292929"/>
</svg>
