<svg width="40" height="40" viewBox="0 0 40 40" fill="none" xmlns="http://www.w3.org/2000/svg">
<path d="M35.9649 11.425C36.1983 10.65 35.9649 10.0817 34.8616 10.0817H31.2066C30.2766 10.0817 29.8516 10.5733 29.6183 11.1133C29.6183 11.1133 27.7599 15.645 25.1266 18.5833C24.2766 19.4383 23.8883 19.7083 23.4249 19.7083C23.1933 19.7083 22.8566 19.4383 22.8566 18.6633V11.425C22.8566 10.495 22.5883 10.0817 21.8133 10.0817H16.0699C15.4899 10.0817 15.1399 10.5117 15.1399 10.9217C15.1399 11.8017 16.4566 12.005 16.5916 14.485V19.865C16.5916 21.0433 16.3799 21.2583 15.9133 21.2583C14.6749 21.2583 11.6616 16.71 9.87325 11.5033C9.52492 10.4917 9.17325 10.0833 8.23992 10.0833H4.58659C3.54159 10.0833 3.33325 10.575 3.33325 11.115C3.33325 12.085 4.57159 16.885 9.10158 23.2333C12.1216 27.5683 16.3733 29.9183 20.2466 29.9183C22.5683 29.9183 22.8549 29.3967 22.8549 28.4967V25.22C22.8549 24.1767 23.0766 23.9667 23.8116 23.9667C24.3516 23.9667 25.2816 24.24 27.4499 26.3283C29.9266 28.805 30.3366 29.9167 31.7283 29.9167H35.3816C36.4249 29.9167 36.9466 29.395 36.6466 28.365C36.3183 27.34 35.1349 25.8483 33.5649 24.0833C32.7116 23.0767 31.4366 21.9933 31.0483 21.4517C30.5066 20.7533 30.6632 20.445 31.0483 19.825C31.0499 19.8267 35.5016 13.5567 35.9649 11.425Z" fill="#292929"/>
</svg>
