<svg width="47" height="47" viewBox="0 0 47 47" fill="none" xmlns="http://www.w3.org/2000/svg">
<path fill-rule="evenodd" clip-rule="evenodd" d="M23.5498 3.83691C12.9788 3.83691 4.41113 12.4046 4.41113 22.9756C4.41113 31.4301 9.89331 38.6047 17.4997 41.1376C18.4572 41.3103 18.8026 40.7212 18.8026 40.2147C18.8026 39.7599 18.7872 38.5548 18.7815 36.9603C13.4566 38.1154 12.3322 34.3928 12.3322 34.3928C11.4649 32.1823 10.208 31.5932 10.208 31.5932C8.47144 30.4054 10.3404 30.4323 10.3404 30.4323C12.2631 30.5666 13.2705 32.4049 13.2705 32.4049C14.9783 35.3292 17.753 34.4849 18.839 33.9956C19.0137 32.758 19.5126 31.9137 20.0575 31.4359C15.8092 30.9542 11.3421 29.3117 11.3421 21.9759C11.3421 19.8901 12.0885 18.1785 13.307 16.8429C13.1132 16.3575 12.4512 14.4098 13.4969 11.7772C13.4969 11.7772 15.103 11.261 18.7584 13.7363C20.3196 13.3116 21.93 13.0948 23.5479 13.0916C25.1659 13.0942 26.7763 13.311 28.3374 13.7363C31.9947 11.2591 33.5989 11.7772 33.5989 11.7772C34.6447 14.4098 33.9884 16.3575 33.7889 16.8429C35.0169 18.1785 35.7538 19.8882 35.7538 21.9759C35.7538 29.3309 31.2828 30.9466 27.0191 31.4205C27.7003 32.0115 28.3144 33.1782 28.3144 34.9627C28.3144 37.5225 28.2913 39.5872 28.2913 40.2147C28.2913 40.727 28.6329 41.3218 29.6096 41.1338C37.2121 38.5971 42.6885 31.4282 42.6885 22.9756C42.6885 12.4046 34.1208 3.83691 23.5498 3.83691Z" fill="#292929"/>
</svg>
