<svg width="40" height="40" viewBox="0 0 40 40" fill="none" xmlns="http://www.w3.org/2000/svg">
<path d="M13.0049 9.55164C13.9866 9.55164 14.8699 9.63664 15.6799 9.80997C16.4849 9.98164 17.1716 10.265 17.7516 10.6566C18.3233 11.0483 18.7699 11.5683 19.0916 12.2216C19.4033 12.8666 19.5583 13.6733 19.5583 14.6266C19.5583 15.66 19.3249 16.5233 18.8566 17.2116C18.3849 17.9016 17.6899 18.4666 16.7633 18.9033C18.0249 19.2683 18.9599 19.9066 19.5799 20.8133C20.2033 21.7283 20.5083 22.8233 20.5083 24.1066C20.5083 25.1483 20.3099 26.0433 19.9116 26.795C19.5277 27.5355 18.9709 28.1724 18.2883 28.6516C17.5812 29.144 16.7914 29.5053 15.9566 29.7183C15.0813 29.9481 14.1799 30.0635 13.2749 30.0616H3.33325V9.55164H13.0049ZM12.4199 17.8383C13.2199 17.8383 13.8833 17.6483 14.4066 17.2633C14.9266 16.8833 15.1783 16.2566 15.1783 15.3983C15.1783 14.9216 15.0933 14.5283 14.9266 14.22C14.7642 13.9233 14.5239 13.6767 14.2316 13.5066C13.9256 13.3252 13.588 13.2036 13.2366 13.1483C12.8536 13.0769 12.4645 13.0428 12.0749 13.0466H7.84992V17.8383H12.4199ZM12.6716 26.57C13.1166 26.57 13.5399 26.5316 13.9383 26.4416C14.3399 26.355 14.6966 26.215 14.9999 26.0066C15.3033 25.8066 15.5533 25.535 15.7333 25.1883C15.9149 24.845 16.0033 24.3966 16.0033 23.8583C16.0033 22.8016 15.7049 22.05 15.1149 21.595C14.5233 21.145 13.7299 20.9216 12.7583 20.9216H7.84992V26.5716L12.6716 26.57ZM26.9466 26.5016C27.5583 27.0983 28.4399 27.3983 29.5866 27.3983C30.4083 27.3983 31.1183 27.19 31.7166 26.7766C32.3066 26.3616 32.6666 25.9183 32.8049 25.46H36.3966C35.8199 27.2466 34.9449 28.5233 33.7483 29.2916C32.5666 30.0633 31.1283 30.4466 29.4483 30.4466C28.2783 30.4466 27.2249 30.2583 26.2816 29.885C25.3761 29.5324 24.5579 28.9876 23.8833 28.2883C23.2197 27.5727 22.7068 26.731 22.3749 25.8133C22.0101 24.7985 21.8295 23.7266 21.8416 22.6483C21.8416 21.5383 22.0266 20.5 22.3899 19.5416C22.7348 18.6153 23.2644 17.7687 23.9466 17.0533C24.6216 16.3533 25.4216 15.8016 26.3533 15.3966C27.333 14.9846 28.3872 14.7792 29.4499 14.7933C30.7066 14.7933 31.8049 15.0366 32.7483 15.5266C33.6631 15.9944 34.4563 16.6689 35.0649 17.4966C35.6699 18.3183 36.1016 19.26 36.3699 20.315C36.6383 21.3683 36.7316 22.4683 36.6549 23.62H25.9366C25.9383 24.7933 26.3333 25.905 26.9466 26.5016ZM31.6333 18.7C31.1483 18.1633 30.3283 17.8733 29.3249 17.8733C28.6733 17.8733 28.1349 17.9816 27.7016 18.205C27.3054 18.4051 26.9538 18.6835 26.6683 19.0233C26.4174 19.3318 26.2315 19.6878 26.1216 20.07C26.0255 20.3886 25.9634 20.7166 25.9366 21.0483H32.5733C32.4766 20.0083 32.1199 19.24 31.6333 18.7ZM25.1033 10.9283H33.4183V12.9533H25.1033V10.9283Z" fill="#292929"/>
</svg>
