<svg width="40" height="40" viewBox="0 0 40 40" fill="none" xmlns="http://www.w3.org/2000/svg">
<path fill-rule="evenodd" clip-rule="evenodd" d="M20.0433 3.33337C10.8616 3.33337 3.41992 10.775 3.41992 19.9567C3.41992 27.3 8.18159 33.5317 14.7883 35.7317C15.6199 35.8817 15.9199 35.37 15.9199 34.93C15.9199 34.535 15.9066 33.4884 15.9016 32.1034C11.2766 33.1067 10.2999 29.8734 10.2999 29.8734C9.54659 27.9534 8.45492 27.4417 8.45492 27.4417C6.94659 26.41 8.56992 26.4334 8.56992 26.4334C10.2399 26.55 11.1149 28.1467 11.1149 28.1467C12.5983 30.6867 15.0083 29.9534 15.9516 29.5284C16.1033 28.4534 16.5366 27.72 17.0099 27.305C13.3199 26.8867 9.43992 25.46 9.43992 19.0884C9.43992 17.2767 10.0883 15.79 11.1466 14.63C10.9783 14.2084 10.4033 12.5167 11.3116 10.23C11.3116 10.23 12.7066 9.78171 15.8816 11.9317C17.2376 11.5628 18.6363 11.3745 20.0416 11.3717C21.4469 11.374 22.8457 11.5623 24.2016 11.9317C27.3783 9.78004 28.7716 10.23 28.7716 10.23C29.6799 12.5167 29.1099 14.2084 28.9366 14.63C30.0033 15.79 30.6433 17.275 30.6433 19.0884C30.6433 25.4767 26.7599 26.88 23.0566 27.2917C23.6483 27.805 24.1816 28.8184 24.1816 30.3684C24.1816 32.5917 24.1616 34.385 24.1616 34.93C24.1616 35.375 24.4583 35.8917 25.3066 35.7284C31.9099 33.525 36.6666 27.2984 36.6666 19.9567C36.6666 10.775 29.2249 3.33337 20.0433 3.33337Z" fill="#F7A30A"/>
</svg>
